<?xml version="1.0" encoding="UTF-8" standalone="no"?>
<!-- Created with Inkscape (http://www.inkscape.org/) -->

<svg
   xmlns:dc="http://purl.org/dc/elements/1.1/"
   xmlns:cc="http://creativecommons.org/ns#"
   xmlns:rdf="http://www.w3.org/1999/02/22-rdf-syntax-ns#"
   xmlns:svg="http://www.w3.org/2000/svg"
   xmlns="http://www.w3.org/2000/svg"
   xmlns:sodipodi="http://sodipodi.sourceforge.net/DTD/sodipodi-0.dtd"
   xmlns:inkscape="http://www.inkscape.org/namespaces/inkscape"
   version="1.0"
   width="700"
   height="700"
   id="svg1936"
   inkscape:version="0.92.4 (5da689c313, 2019-01-14)"
   sodipodi:docname="amazon-logo.svg">
  <metadata
     id="metadata3355">
    <rdf:RDF>
      <cc:Work
         rdf:about="">
        <dc:format>image/svg+xml</dc:format>
        <dc:type
           rdf:resource="http://purl.org/dc/dcmitype/StillImage" />
        <dc:title></dc:title>
      </cc:Work>
    </rdf:RDF>
  </metadata>
  <sodipodi:namedview
     pagecolor="#ffffff"
     bordercolor="#666666"
     borderopacity="1"
     objecttolerance="10"
     gridtolerance="10"
     guidetolerance="10"
     inkscape:pageopacity="0"
     inkscape:pageshadow="2"
     inkscape:window-width="1920"
     inkscape:window-height="1017"
     id="namedview3353"
     showgrid="false"
     fit-margin-top="0"
     fit-margin-left="0"
     fit-margin-right="0"
     fit-margin-bottom="0"
     inkscape:zoom="0.310287"
     inkscape:cx="-369.18905"
     inkscape:cy="79.815562"
     inkscape:window-x="-8"
     inkscape:window-y="-8"
     inkscape:window-maximized="1"
     inkscape:current-layer="g1967" />
  <defs
     id="defs1938" />
  <g
     transform="translate(144.53434,-131.37641)"
     id="layer1">
    <g
       transform="translate(7.081691,7.081144)"
       id="g1967">
      <path
         d="m 255.43775,514.57642 c -27.54179,20.30048 -67.46192,31.13152 -101.83242,31.13152 -48.19298,0 -91.579032,-17.8248 -124.402255,-47.47091 -2.578815,-2.33127 -0.268206,-5.50836 2.826388,-3.69288 35.422656,20.60993 79.221347,33.0089 124.464157,33.0089 30.51257,0 64.07848,-6.31296 94.9418,-19.41336 4.66251,-1.98054 8.56168,3.05332 4.00233,6.43673"
         id="path8"
         style="fill:#ff9900;fill-opacity:1;fill-rule:evenodd;stroke:none;stroke-width:0.78691989"
         inkscape:connector-curvature="0" />
      <path
         d="m 266.88772,501.47602 c -3.50721,-4.49746 -23.27128,-2.12494 -32.14242,-1.07278 -2.70261,0.33009 -3.11521,-2.0218 -0.68082,-3.71352 15.74112,-11.0786 41.57059,-7.88087 44.58265,-4.16737 3.01205,3.73414 -0.78396,29.6255 -15.57608,41.98319 -2.26936,1.89801 -4.43557,0.88712 -3.42466,-1.62982 3.32151,-8.29348 10.76915,-26.8816 7.24133,-31.3997"
         id="path10"
         style="fill:#ff9900;fill-opacity:1;fill-rule:evenodd;stroke:none;stroke-width:0.78691989"
         inkscape:connector-curvature="0" />
      <path
         d="m 235.36422,418.47929 v -10.76915 c 0,-1.62981 1.23784,-2.72323 2.72323,-2.72323 h 48.2136 c 1.54731,0 2.78514,1.11405 2.78514,2.72323 v 9.22186 c -0.0206,1.54729 -1.32036,3.56908 -3.63099,6.76682 l -24.9836,35.67024 c 9.28376,-0.22693 19.08327,1.1553 27.50054,5.90034 1.89801,1.07278 2.41377,2.6407 2.55819,4.18801 v 11.49122 c 0,1.56792 -1.73297,3.40402 -3.54846,2.45503 -14.83337,-7.77773 -34.53555,-8.62358 -50.93684,0.0825 -1.67107,0.90775 -3.42467,-0.90774 -3.42467,-2.47566 v -10.91357 c 0,-1.75359 0.0206,-4.74504 1.77421,-7.40638 l 28.94468,-41.50867 h -25.1899 c -1.54729,0 -2.78513,-1.09341 -2.78513,-2.70261"
         id="path12"
         style="fill:#221f1f;fill-rule:evenodd;stroke:none;stroke-width:0.78691989"
         inkscape:connector-curvature="0" />
      <path
         d="M 59.488726,485.67301 H 44.820405 c -1.402866,-0.10314 -2.516924,-1.1553 -2.620081,-2.4963 v -75.28088 c 0,-1.50603 1.258466,-2.70261 2.826388,-2.70261 h 13.678053 c 1.423522,0.0619 2.55819,1.15531 2.661355,2.51692 v 9.84079 h 0.268198 c 3.569083,-9.5107 10.274002,-13.94627 19.310196,-13.94627 9.180593,0 14.915885,4.43557 19.041998,13.94627 3.548458,-9.5107 11.614998,-13.94627 20.259208,-13.94627 6.14791,0 12.87347,2.53756 16.97895,8.23159 4.64188,6.33358 3.69287,15.53481 3.69287,23.60137 l -0.0206,47.51217 c 0,1.50603 -1.25847,2.72322 -2.82639,2.72322 h -14.64771 c -1.46476,-0.10314 -2.6407,-1.27908 -2.6407,-2.72322 v -39.8995 c 0,-3.1771 0.28882,-11.09924 -0.41261,-14.11131 -1.09342,-5.05447 -4.37368,-6.47799 -8.62358,-6.47799 -3.54846,0 -7.26196,2.37251 -8.76799,6.16854 -1.50603,3.79603 -1.36161,10.15022 -1.36161,14.42076 v 39.8995 c 0,1.50603 -1.25847,2.72322 -2.826393,2.72322 H 84.14225 c -1.485398,-0.10314 -2.640715,-1.27908 -2.640715,-2.72322 l -0.02062,-39.8995 c 0,-8.39663 1.382233,-20.75434 -9.036186,-20.75434 -10.542224,0 -10.12961,12.04824 -10.12961,20.75434 v 39.8995 c 0,1.50603 -1.258466,2.72322 -2.826388,2.72322"
         id="path14"
         style="fill:#221f1f;fill-rule:evenodd;stroke:none;stroke-width:0.78691989"
         inkscape:connector-curvature="0" />
      <path
         d="m 330.59487,403.60466 c 21.76524,0 33.54528,18.69129 33.54528,42.45769 0,22.9618 -13.01789,41.17858 -33.54528,41.17858 -21.37326,0 -33.00891,-18.69128 -33.00891,-41.98317 0,-23.43632 11.78006,-41.6531 33.00891,-41.6531 m 0.12377,15.36978 c -10.81039,0 -11.49121,14.7302 -11.49121,23.91081 0,9.20122 -0.14442,28.84151 11.36744,28.84151 11.36743,0 11.90383,-15.84425 11.90383,-25.49938 0,-6.35419 -0.2682,-13.94624 -2.18685,-19.97037 -1.65045,-5.24015 -4.93069,-7.28257 -9.59321,-7.28257"
         id="path16"
         style="fill:#221f1f;fill-rule:evenodd;stroke:none;stroke-width:0.78691989"
         inkscape:connector-curvature="0" />
      <path
         d="m 392.36275,485.67301 h -14.60643 c -1.46478,-0.10314 -2.64072,-1.27908 -2.64072,-2.72322 l -0.0206,-75.30154 c 0.12379,-1.38225 1.34099,-2.45503 2.82639,-2.45503 h 13.59555 c 1.27908,0.0619 2.33124,0.92837 2.62008,2.10432 v 11.51184 h 0.26818 c 4.1055,-10.29464 9.86141,-15.20472 19.99101,-15.20472 6.58114,0 12.99725,2.37252 17.12337,8.87114 3.83728,6.02412 3.83728,16.15373 3.83728,23.43631 v 47.3884 c -0.16504,1.32034 -1.38225,2.3725 -2.82637,2.3725 h -14.7096 c -1.341,-0.10314 -2.45505,-1.09341 -2.59945,-2.3725 v -40.88977 c 0,-8.23159 0.949,-20.27984 -9.18061,-20.27984 -3.56907,0 -6.84934,2.39315 -8.47915,6.02412 -2.06305,4.60063 -2.33124,9.18061 -2.33124,14.25572 v 40.53905 c -0.0206,1.50603 -1.29973,2.72322 -2.86765,2.72322"
         id="path18"
         style="fill:#221f1f;fill-rule:evenodd;stroke:none;stroke-width:0.78691989"
         inkscape:connector-curvature="0" />
      <path
         d="m 196.92949,449.71396 c 0,5.71466 0.14442,10.48032 -2.74386,15.55544 -2.33125,4.12612 -6.04475,6.66367 -10.15023,6.66367 -5.63214,0 -8.93303,-4.29116 -8.93303,-10.62474 0,-12.50212 11.20239,-14.77147 21.82712,-14.77147 v 3.1771 m 14.79212,35.75274 c -0.96963,0.86649 -2.37252,0.92838 -3.46594,0.35073 -4.86881,-4.04358 -5.75592,-5.92096 -8.41726,-9.77888 -8.04592,8.21096 -13.7606,10.66599 -24.17902,10.66599 -12.35771,0 -21.95091,-7.61267 -21.95091,-22.85864 0,-11.90384 6.43674,-20.01165 15.63797,-23.97271 7.96339,-3.50721 19.08325,-4.12612 27.58304,-5.09575 v -1.89801 c 0,-3.48658 0.2682,-7.61269 -1.79485,-10.62473 -1.77423,-2.70262 -5.19891,-3.81667 -8.23159,-3.81667 -5.59089,0 -10.56284,2.86765 -11.78006,8.80925 -0.24756,1.32036 -1.21719,2.62009 -2.55819,2.68198 l -14.21445,-1.52667 c -1.19657,-0.26819 -2.53755,-1.23784 -2.18683,-3.07394 3.25963,-17.24714 18.85633,-22.44606 32.80257,-22.44606 7.13819,0 16.46319,1.89801 22.09534,7.30322 7.13816,6.66367 6.45735,15.55544 6.45735,25.23118 v 22.85865 c 0,6.86998 2.84702,9.88203 5.52899,13.59554 0.92839,1.32034 1.13469,2.9089 -0.0619,3.89917 -2.99143,2.4963 -8.31412,7.13818 -11.24365,9.73763 l -0.0206,-0.0413"
         id="path28"
         style="fill:#221f1f;fill-rule:evenodd;stroke:none;stroke-width:0.78691989"
         inkscape:connector-curvature="0" />
      <path
         d="m 4.632094,449.71396 c 0,5.71466 0.1444,10.48032 -2.74387,15.55544 -2.33126,4.12612 -6.02413,6.66367 -10.15024,6.66367 -5.63214,0 -8.9124,-4.29116 -8.9124,-10.62474 0,-12.50212 11.20239,-14.77147 21.80651,-14.77147 v 3.1771 m 14.7921,35.75274 c -0.969634,0.86649 -2.372524,0.92838 -3.465941,0.35073 -4.868799,-4.04358 -5.735289,-5.92096 -8.417269,-9.77888 -8.04591,8.21096 -13.73993,10.66599 -24.17901,10.66599 -12.33708,0 -21.9509,-7.61267 -21.9509,-22.85864 0,-11.90384 6.45736,-20.01165 15.63796,-23.97271 7.96339,-3.50721 19.08326,-4.12612 27.58306,-5.09575 v -1.89801 c 0,-3.48658 0.2682,-7.61269 -1.77423,-10.62473 -1.79487,-2.70262 -5.21953,-3.81667 -8.2316,-3.81667 -5.59087,0 -10.58348,2.86765 -11.80068,8.80925 -0.24757,1.32036 -1.2172,2.62009 -2.53755,2.68198 l -14.23508,-1.52667 c -1.19658,-0.26819 -2.51694,-1.23784 -2.18685,-3.07394 3.28026,-17.24714 18.85633,-22.44606 32.80259,-22.44606 7.13816,0 16.463171,1.89801 22.095314,7.30322 7.138182,6.66367 6.457362,15.55544 6.457362,25.23118 v 22.85865 c 0,6.86998 2.847029,9.88203 5.529002,13.59554 0.949002,1.32034 1.155308,2.9089 -0.04127,3.89917 -2.991429,2.4963 -8.314108,7.13818 -11.243661,9.73763 l -0.04125,-0.0413"
         id="path30"
         style="fill:#221f1f;fill-rule:evenodd;stroke:none;stroke-width:0.78691989"
         inkscape:connector-curvature="0" />
    </g>
  </g>
</svg>
