<?xml version="1.0" encoding="UTF-8" standalone="no"?>
<!-- Generator: Adobe Illustrator 21.0.0, SVG Export Plug-In . SVG Version: 6.00 Build 0)  -->

<svg
   xmlns:dc="http://purl.org/dc/elements/1.1/"
   xmlns:cc="http://creativecommons.org/ns#"
   xmlns:rdf="http://www.w3.org/1999/02/22-rdf-syntax-ns#"
   xmlns:svg="http://www.w3.org/2000/svg"
   xmlns="http://www.w3.org/2000/svg"
   xmlns:sodipodi="http://sodipodi.sourceforge.net/DTD/sodipodi-0.dtd"
   xmlns:inkscape="http://www.inkscape.org/namespaces/inkscape"
   version="1.1"
   id="Layer_1"
   x="0px"
   y="0px"
   viewBox="0 0 4096 4096.0001"
   xml:space="preserve"
   sodipodi:docname="apple-pay-logo.svg"
   width="4096"
   height="4096"
   inkscape:version="0.92.2 (5c3e80d, 2017-08-06)"
   inkscape:export-filename="G:\Users\suitedoalex\sites\apple-pay-logo-0.png"
   inkscape:export-xdpi="96"
   inkscape:export-ydpi="96"><metadata
     id="metadata20"><rdf:RDF><cc:Work
         rdf:about=""><dc:format>image/svg+xml</dc:format><dc:type
           rdf:resource="http://purl.org/dc/dcmitype/StillImage" /><dc:title></dc:title></cc:Work></rdf:RDF></metadata><defs
     id="defs18" /><sodipodi:namedview
     pagecolor="#ffffff"
     bordercolor="#666666"
     borderopacity="1"
     objecttolerance="10"
     gridtolerance="10"
     guidetolerance="10"
     inkscape:pageopacity="0"
     inkscape:pageshadow="2"
     inkscape:window-width="968"
     inkscape:window-height="480"
     id="namedview16"
     showgrid="false"
     inkscape:zoom="0.057659586"
     inkscape:cx="3803.9878"
     inkscape:cy="2207.0735"
     inkscape:window-x="519"
     inkscape:window-y="241"
     inkscape:window-maximized="0"
     inkscape:current-layer="Layer_1" /><path
     id="XMLID_34_"
     d="m 1014.4595,1551.6847 c -38.17807,45.1774 -99.26302,80.8103 -160.34798,75.7199 -7.63562,-61.0849 22.27056,-125.9877 57.26714,-166.0748 38.17811,-46.4499 104.98974,-79.5376 159.07544,-82.0828 6.363,63.6301 -18.4528,125.9877 -55.9946,172.4377 m 55.3583,87.8097 c -88.44595,-5.0905 -164.16585,50.2678 -206.16176,50.2678 -42.63221,0 -106.89868,-47.7227 -176.89186,-46.4501 -90.99113,1.2726 -175.61924,52.8131 -222.06926,134.896 -95.44525,164.1658 -24.81577,407.233 67.44797,540.8564 45.17741,66.1753 99.26306,138.7137 170.52884,136.1685 67.44798,-2.5451 94.17264,-43.9048 175.61925,-43.9048 82.08291,0 105.62607,43.9048 176.89182,42.6322 73.8111,-1.2725 120.261,-66.1754 165.4385,-132.3507 51.5404,-75.0836 72.5383,-148.2583 73.8109,-152.0761 -1.2726,-1.2726 -142.5315,-55.3583 -143.8041,-218.2515 -1.2726,-136.1686 111.3528,-201.0713 116.4432,-204.8891 -63.6301,-94.1726 -162.8933,-104.3535 -197.2535,-106.8986 m 510.9502,-184.5275 v 991.9942 h 153.985 v -339.1487 h 213.1611 c 194.7083,0 331.5131,-133.6235 331.5131,-327.0591 0,-193.4357 -134.2597,-325.7864 -326.4227,-325.7864 z m 153.985,129.8054 h 177.5282 c 133.6233,0 209.9795,71.2658 209.9795,196.6173 0,125.3514 -76.3562,197.2535 -210.6158,197.2535 H 1734.753 Z m 825.9196,869.8244 c 96.7178,0 186.4364,-48.9952 227.1596,-126.624 h 3.1815 v 118.9884 h 142.5316 v -493.77 c 0,-143.1679 -114.5343,-235.4317 -290.7898,-235.4317 -163.5295,0 -284.4269,93.5364 -288.881,222.0693 h 138.7138 c 11.4534,-61.0849 68.0843,-101.1719 145.7131,-101.1719 94.1726,0 146.9856,43.9047 146.9856,124.7151 v 54.7219 l -192.1631,11.4534 c -178.8008,10.8172 -275.5186,83.9919 -275.5186,211.2522 0,128.5329 99.8994,213.7973 243.0673,213.7973 z m 41.3595,-117.7157 c -82.0829,0 -134.2596,-39.4508 -134.2596,-99.8994 0,-62.3576 50.2679,-98.6268 146.3494,-104.3535 l 171.1651,-10.8171 v 55.9946 c 0,92.8999 -78.9014,159.0754 -183.2549,159.0754 z m 521.7674,379.872 c 150.1672,0 220.7967,-57.2671 282.5179,-230.9775 l 270.4282,-758.4715 h -156.5302 l -181.346,586.0337 h -3.1814 L 3154.342,1727.304 h -160.9843 l 260.8836,722.2023 -13.9986,43.9048 c -23.5431,74.4473 -61.7213,103.0809 -129.8056,103.0809 -12.0897,0 -35.6328,-1.2726 -45.1773,-2.5452 v 118.9884 c 8.9082,2.5452 47.0863,3.8178 58.5397,3.8178 z"
     inkscape:connector-curvature="0"
     style="stroke-width:6.36301613"
     inkscape:export-filename="G:\Users\suitedoalex\sites\apple-pay-logo-5.png"
     inkscape:export-xdpi="5.8941064"
     inkscape:export-ydpi="5.8941064" /><g
     id="g3"
     transform="matrix(6.3630164,0,0,6.3630164,418.88121,1379.247)"
     inkscape:export-filename="G:\Users\suitedoalex\sites\apple-pay-logo-5.png"
     inkscape:export-xdpi="5.8941064"
     inkscape:export-ydpi="5.8941064" /><g
     id="g5"
     transform="matrix(6.3630164,0,0,6.3630164,418.88121,1379.247)"
     inkscape:export-filename="G:\Users\suitedoalex\sites\apple-pay-logo-5.png"
     inkscape:export-xdpi="5.8941064"
     inkscape:export-ydpi="5.8941064" /><g
     id="g7"
     transform="matrix(6.3630164,0,0,6.3630164,418.88121,1379.247)"
     inkscape:export-filename="G:\Users\suitedoalex\sites\apple-pay-logo-5.png"
     inkscape:export-xdpi="5.8941064"
     inkscape:export-ydpi="5.8941064" /><g
     id="g9"
     transform="matrix(6.3630164,0,0,6.3630164,418.88121,1379.247)"
     inkscape:export-filename="G:\Users\suitedoalex\sites\apple-pay-logo-5.png"
     inkscape:export-xdpi="5.8941064"
     inkscape:export-ydpi="5.8941064" /><g
     id="g11"
     transform="matrix(6.3630164,0,0,6.3630164,418.88121,1379.247)"
     inkscape:export-filename="G:\Users\suitedoalex\sites\apple-pay-logo-5.png"
     inkscape:export-xdpi="5.8941064"
     inkscape:export-ydpi="5.8941064" /><g
     id="g13"
     transform="matrix(6.3630164,0,0,6.3630164,418.88121,1379.247)"
     inkscape:export-filename="G:\Users\suitedoalex\sites\apple-pay-logo-5.png"
     inkscape:export-xdpi="5.8941064"
     inkscape:export-ydpi="5.8941064" /></svg>